# xmcd
#
# Track frame offsets: 
#        150
#        15800
#        29432
#        44607
#        62770
#        79667
#        96767
#        113405
#        130045
#        148270
#
# Disc length: 2212 seconds
#
# Revision: 2
# Processed by: cddbd v1.5PL3 Copyright (c) Steve Scherf et al.
# Submitted via: ExactAudioCopy v0.95a3
#
DISCID=7908a20a
DTITLE=Jamie O'Hara - Rise Above It
DYEAR=1994
DGENRE=Country
TTITLE0=Rise Above It
TTITLE1=It Ain't Over ('Til Your Heart Says It's Over)
TTITLE2=What's A Good Ol' Boy To Do
TTITLE3=The Cold Hard Truth
TTITLE4=Miles Of Heartache
TTITLE5=Some People (Just Can't Walk The Line)
TTITLE6=My Little Lady (Ain't My Little Lady No More)
TTITLE7=50,000 Names
TTITLE8=For Reasons I've Forgotten
TTITLE9=I'm Livin' For You
EXTD=
EXTT0=
EXTT1=
EXTT2=
EXTT3=
EXTT4=
EXTT5=
EXTT6=
EXTT7=
EXTT8=
EXTT9=
PLAYORDER=
